{"asset":{"generator":"Khronos glTF Spline I/O v0.0.1","version":"2.0"},"scenes":[{"nodes":[0]}],"nodes":[{"name":"","children":[1,2]},{"name":"Dodecahedron","matrix":[1,0,0,0,0,1,0,0,0,0,1,0,0,0,0,1],"mesh":0},{"name":"Personal Camera","camera":0,"translation":[234.92652808747664,237.4416544882805,961.9682524697249],"rotation":[-0.07795026667027309,0.1137524931206806,0.008952931934768031,0.9904059628478791]}],"cameras":[{"type":"orthographic","orthographic":{"xmag":1440,"ymag":702,"zfar":100000,"znear":-100000}}],"meshes":[{"primitives":[{"attributes":{"POSITION":0,"NORMAL":1,"TEXCOORD_0":2}}]}],"buffers":[{"uri":"data:application/octet-stream;base64,","byteLength":3456}],"bufferViews":[{"buffer":0,"byteOffset":0,"byteLength":1296,"target":34962},{"buffer":0,"byteOffset":1296,"byteLength":1296,"target":34962},{"buffer":0,"byteOffset":2592,"byteLength":864,"target":34962}],"accessors":[{"bufferView":0,"byteOffset":0,"componentType":5126,"count":108,"type":"VEC3","min":[-161.61181640625,-161.61181640625,-161.61181640625],"max":[161.61181640625,161.61181640625,161.61181640625]},{"bufferView":1,"byteOffset":0,"componentType":5126,"count":108,"type":"VEC3","min":[-0.8506508469581604,-0.8506508469581604,-0.8506508469581604],"max":[0.8506508469581604,0.8506508469581604,0.8506508469581604]},{"bufferView":2,"byteOffset":0,"componentType":5126,"count":108,"type":"VEC2","min":[0,0.11613976210355759],"max":[1.125,0.8838602304458618]}],"extensions":{"KHR_lights_punctual":{"lights":[]}},"extensionsUsed":["KHR_lights_punctual"]}