{"asset":{"generator":"Khronos glTF Spline I/O v0.0.1","version":"2.0"},"scenes":[{"nodes":[0]}],"nodes":[{"name":"","children":[1,2,3]},{"name":"Cylinder 2","matrix":[1,0,0,0,0,-1,1.2246467991473532e-16,0,0,-1.2246467991473532e-16,-1,0,41.5,14.5,223.69000972713786,1],"mesh":0},{"name":"Cylinder","matrix":[1,0,0,0,0,1,0,0,0,0,1,0,28.50000000000003,145.6760351540753,220.5,1],"mesh":1},{"name":"Personal Camera","camera":0,"translation":[-1962.756704503039,169.5750232518165,651.6636520108692],"rotation":[-0.054133248202749375,-0.6329003416170587,-0.0444336155077552,0.7710592732293277]}],"cameras":[{"type":"perspective","perspective":{"aspectRatio":1.9173789173789173,"yfov":0.7853981633974483,"znear":5,"zfar":500000}}],"meshes":[{"primitives":[{"attributes":{"POSITION":1,"NORMAL":2,"TEXCOORD_0":3},"indices":0}]},{"primitives":[{"attributes":{"POSITION":5,"NORMAL":6,"TEXCOORD_0":7},"indices":4}]}],"buffers":[{"uri":"data:application/octet-stream;base64,","byteLength":13952},{"uri":"data:application/octet-stream;base64,","byteLength":13952}],"bufferViews":[{"buffer":0,"byteOffset":0,"byteLength":1536,"target":34963},{"buffer":0,"byteOffset":1536,"byteLength":4656,"target":34962},{"buffer":0,"byteOffset":6192,"byteLength":4656,"target":34962},{"buffer":0,"byteOffset":10848,"byteLength":3104,"target":34962},{"buffer":1,"byteOffset":0,"byteLength":1536,"target":34963},{"buffer":1,"byteOffset":1536,"byteLength":4656,"target":34962},{"buffer":1,"byteOffset":6192,"byteLength":4656,"target":34962},{"buffer":1,"byteOffset":10848,"byteLength":3104,"target":34962}],"accessors":[{"bufferView":0,"byteOffset":0,"componentType":5123,"count":768,"type":"SCALAR","min":[0],"max":[387]},{"bufferView":1,"byteOffset":0,"componentType":5126,"count":388,"type":"VEC3","min":[-21.5,-118.5,-18],"max":[21.5,118.5,18]},{"bufferView":2,"byteOffset":0,"componentType":5126,"count":388,"type":"VEC3","min":[-1,-1,-1],"max":[1,1,1]},{"bufferView":3,"byteOffset":0,"componentType":5126,"count":388,"type":"VEC2","min":[0,0],"max":[1,1]},{"bufferView":4,"byteOffset":0,"componentType":5123,"count":768,"type":"SCALAR","min":[0],"max":[387]},{"bufferView":5,"byteOffset":0,"componentType":5126,"count":388,"type":"VEC3","min":[-220.5,-16,-220.5],"max":[220.5,16,220.5]},{"bufferView":6,"byteOffset":0,"componentType":5126,"count":388,"type":"VEC3","min":[-1,-1,-1],"max":[1,1,1]},{"bufferView":7,"byteOffset":0,"componentType":5126,"count":388,"type":"VEC2","min":[0,0],"max":[1,1]}],"extensions":{"KHR_lights_punctual":{"lights":[]}},"extensionsUsed":["KHR_lights_punctual"]}