{"asset":{"generator":"Khronos glTF Spline I/O v0.0.1","version":"2.0"},"scenes":[{"nodes":[0]}],"nodes":[{"name":"","children":[1,2]},{"name":"Cube","matrix":[2.220446049250319e-16,-7.53644380168214e-15,1.0000000000000024,0,3.140184917367544e-16,-1.9999999999999991,-1.507288760336424e-14,0,1.0000000000000016,1.5700924586837747e-16,2.220446049250317e-16,0,126.64315968610052,273.1409521389341,627.2841118250359,1],"mesh":0},{"name":"Personal Camera","camera":0,"translation":[176.1362317721018,509.6279296654137,888.2612920007639],"rotation":[-0.21875321017267155,0.08953427856844699,0.020161425536882816,0.9714546633377698]}],"cameras":[{"type":"orthographic","orthographic":{"xmag":1440,"ymag":698,"zfar":100000,"znear":-100000}}],"meshes":[{"primitives":[{"attributes":{"POSITION":1,"NORMAL":2,"FACEMAP":3,"COLOR":4},"indices":0}]}],"buffers":[{"uri":"data:application/octet-stream;base64,","byteLength":73728}],"bufferViews":[{"buffer":0,"byteOffset":0,"byteLength":9216,"target":34963},{"buffer":0,"byteOffset":9216,"byteLength":18432,"target":34962},{"buffer":0,"byteOffset":27648,"byteLength":18432,"target":34962},{"buffer":0,"byteOffset":46080,"byteLength":3072,"target":34962},{"buffer":0,"byteOffset":49152,"byteLength":24576,"target":34962}],"accessors":[{"bufferView":0,"byteOffset":0,"componentType":5125,"count":2304,"type":"SCALAR","min":[0],"max":[1535]},{"bufferView":1,"byteOffset":0,"componentType":5126,"count":1536,"type":"VEC3","min":[-120.15831756591797,-14.435981750488281,-349.7981262207031],"max":[120.15831756591797,14.435981750488281,349.9000549316406]},{"bufferView":2,"byteOffset":0,"componentType":5126,"count":1536,"type":"VEC3","min":[-1,-1,-0.999994695186615],"max":[1,1,0.9999895691871643]},{"bufferView":3,"byteOffset":0,"componentType":5125,"count":768,"type":"SCALAR","min":[0],"max":[767]},{"bufferView":4,"byteOffset":0,"componentType":5126,"count":1536,"type":"VEC4","min":[0,0,0,0],"max":[0,0,0,0]}],"extensions":{"KHR_lights_punctual":{"lights":[]}},"extensionsUsed":["KHR_lights_punctual"]}