{"asset":{"generator":"Khronos glTF Spline I/O v0.0.1","version":"2.0"},"scenes":[{"nodes":[0]}],"nodes":[{"name":"","children":[1,2,3,4,5,6,7,8,9,10,11]},{"name":"Cylinder 2","matrix":[2.220446049250313e-16,0,1,0,0,1,0,0,-1,0,2.220446049250313e-16,0,-8.292260915907832,99.79912015080048,10.838244949966807,1],"mesh":0},{"name":"Cylinder","matrix":[-1.2589605958157868,0.007736703735023418,-0.06552415794782483,0,0.006128593553279475,0.9999811691222122,0.00031897021504691286,0,0.05197588534043375,-1.2232511011067174e-16,-0.9986483401793602,0,-5.67835688049574,143.51515451921048,13.225805541107126,1],"mesh":1},{"name":"Sphere 2","matrix":[-0.9902680687415774,-0.0024289055230920613,-0.13915190422269147,0,1.212138028838794e-16,0.9998476951563913,-0.017452406437283418,0,0.13083117583264692,-0.016246657849543666,-0.9307704048284372,0,-21.305895985129563,59.022889705640715,-52.98401111677744,1],"mesh":2},{"name":"Sphere","matrix":[-0.9902680687415774,-0.0024289055230920613,-0.13915190422269147,0,1.212138028838794e-16,0.9998476951563913,-0.017452406437283418,0,0.1391731009600692,-0.017282560817541922,-0.9901172461182475,0,15.88498721171823,59.06032964124492,-50.839078642554234,1],"mesh":3},{"name":"Cone 4","matrix":[0.22187862262054128,-0.9407049363835485,0.2566010512209584,0,-0.9121946673859267,-0.29322648926962874,-0.28621515470614145,0,0.34448623429224773,-0.17056508627004838,-0.9231667161076433,0,-85.16200330382782,-91.50118700082288,-2.094188214974434,1],"mesh":4},{"name":"Cone 3","matrix":[3.330669073875511e-16,0.0006381873893194302,0.9999997963584198,0,0.8230592732747554,-0.5679553691072955,0.0003624620280726247,0,0.5679554847666346,0.8230591056656249,-0.0005252660488666077,0,71.61542353519248,-93.15382602856108,24.946062569287264,1],"mesh":5},{"name":"Cone 2","matrix":[1.1102230246251627e-16,0.0006381873893213827,0.999999796358413,0,-0.13119306244579224,-0.9913566361773949,0.000632671432366729,0,0.9913568380588827,-0.13119303572942836,0.00008372575801907136,0,-38.22683083069574,-204.91349800415972,11.767383498849604,1],"mesh":6},{"name":"Cone","matrix":[-2.220446049250327e-16,0.0006381873893197039,0.9999997963584136,0,0.10951684926732112,-0.9939847369695268,0.0006343486534899812,0,0.9939849393861949,0.10951682696513465,-0.00006989227212050927,0,26.400578022470427,-206.54086079492467,10.268421756009563,1],"mesh":7},{"name":"Cube","matrix":[-0.9985756188789057,1.2899875692395656e-16,0.05335478779488799,0,1.2229024353666227e-16,1,-1.289987569239548e-16,0,-0.053354787794888725,-1.222902435366656e-16,-0.9985756188789194,0,-3.527395200047452,-99.0435845028624,10.355893504572618,1],"mesh":8},{"name":"head","matrix":[0.99026806874157,0.00242890552309218,0.13915190422269058,0,-5.637851296924623e-18,0.9998476951563913,-0.01745240643728348,0,-0.13917310096006658,0.01728256081754162,0.9901172461182275,0,-5.986407526678676,45.34138875401636,8.160302496353665,1],"mesh":9},{"name":"Personal Camera","camera":0,"translation":[0.5532852948486706,42.90712136474141,-781.8830958864145],"rotation":[0.000036030966547970186,0.9998974037281346,0.002556175638436378,-0.01409420751978087]}],"cameras":[{"type":"perspective","perspective":{"aspectRatio":1.497150997150997,"yfov":0.7853981633974483,"znear":5,"zfar":500000}}],"meshes":[{"primitives":[{"attributes":{"POSITION":1,"NORMAL":2,"TEXCOORD_0":3},"indices":0}]},{"primitives":[{"attributes":{"POSITION":5,"NORMAL":6,"TEXCOORD_0":7},"indices":4}]},{"primitives":[{"attributes":{"POSITION":9,"NORMAL":10,"TEXCOORD_0":11},"indices":8}]},{"primitives":[{"attributes":{"POSITION":13,"NORMAL":14,"TEXCOORD_0":15},"indices":12}]},{"primitives":[{"attributes":{"POSITION":17,"NORMAL":18,"TEXCOORD_0":19},"indices":16}]},{"primitives":[{"attributes":{"POSITION":21,"NORMAL":22,"TEXCOORD_0":23},"indices":20}]},{"primitives":[{"attributes":{"POSITION":25,"NORMAL":26,"TEXCOORD_0":27},"indices":24}]},{"primitives":[{"attributes":{"POSITION":29,"NORMAL":30,"TEXCOORD_0":31},"indices":28}]},{"primitives":[{"attributes":{"POSITION":33,"NORMAL":34,"TEXCOORD_0":35},"indices":32}]},{"primitives":[{"attributes":{"POSITION":37,"NORMAL":38,"TEXCOORD_0":39},"indices":36}]}],"buffers":[{"uri":"data:application/octet-stream;base64,","byteLength":67200},{"uri":"data:application/octet-stream;base64,","byteLength":67200},{"uri":"data:application/octet-stream;base64,","byteLength":183584},{"uri":"data:application/octet-stream;base64,","byteLength":183584},{"uri":"data:application/octet-stream;base64,","byteLength":48384},{"uri":"data:application/octet-stream;base64,","byteLength":48384},{"uri":"data:application/octet-stream;base64,","byteLength":31104},{"uri":"data:application/octet-stream;base64,","byteLength":31104},{"uri":"data:application/octet-stream;base64,","byteLength":23496},{"uri":"data:application/octet-stream;base64,","byteLength":183584}],"bufferViews":[{"buffer":0,"byteOffset":0,"byteLength":17280,"target":34963},{"buffer":0,"byteOffset":17280,"byteLength":18720,"target":34962},{"buffer":0,"byteOffset":36000,"byteLength":18720,"target":34962},{"buffer":0,"byteOffset":54720,"byteLength":12480,"target":34962},{"buffer":1,"byteOffset":0,"byteLength":17280,"target":34963},{"buffer":1,"byteOffset":17280,"byteLength":18720,"target":34962},{"buffer":1,"byteOffset":36000,"byteLength":18720,"target":34962},{"buffer":1,"byteOffset":54720,"byteLength":12480,"target":34962},{"buffer":2,"byteOffset":0,"byteLength":48384,"target":34963},{"buffer":2,"byteOffset":48384,"byteLength":50700,"target":34962},{"buffer":2,"byteOffset":99084,"byteLength":50700,"target":34962},{"buffer":2,"byteOffset":149784,"byteLength":33800,"target":34962},{"buffer":3,"byteOffset":0,"byteLength":48384,"target":34963},{"buffer":3,"byteOffset":48384,"byteLength":50700,"target":34962},{"buffer":3,"byteOffset":99084,"byteLength":50700,"target":34962},{"buffer":3,"byteOffset":149784,"byteLength":33800,"target":34962},{"buffer":4,"byteOffset":0,"byteLength":12480,"target":34963},{"buffer":4,"byteOffset":12480,"byteLength":13464,"target":34962},{"buffer":4,"byteOffset":25944,"byteLength":13464,"target":34962},{"buffer":4,"byteOffset":39408,"byteLength":8976,"target":34962},{"buffer":5,"byteOffset":0,"byteLength":12480,"target":34963},{"buffer":5,"byteOffset":12480,"byteLength":13464,"target":34962},{"buffer":5,"byteOffset":25944,"byteLength":13464,"target":34962},{"buffer":5,"byteOffset":39408,"byteLength":8976,"target":34962},{"buffer":6,"byteOffset":0,"byteLength":7872,"target":34963},{"buffer":6,"byteOffset":7872,"byteLength":8712,"target":34962},{"buffer":6,"byteOffset":16584,"byteLength":8712,"target":34962},{"buffer":6,"byteOffset":25296,"byteLength":5808,"target":34962},{"buffer":7,"byteOffset":0,"byteLength":7872,"target":34963},{"buffer":7,"byteOffset":7872,"byteLength":8712,"target":34962},{"buffer":7,"byteOffset":16584,"byteLength":8712,"target":34962},{"buffer":7,"byteOffset":25296,"byteLength":5808,"target":34962},{"buffer":8,"byteOffset":0,"byteLength":4296,"target":34963},{"buffer":8,"byteOffset":4296,"byteLength":7200,"target":34962},{"buffer":8,"byteOffset":11496,"byteLength":7200,"target":34962},{"buffer":8,"byteOffset":18696,"byteLength":4800,"target":34962},{"buffer":9,"byteOffset":0,"byteLength":48384,"target":34963},{"buffer":9,"byteOffset":48384,"byteLength":50700,"target":34962},{"buffer":9,"byteOffset":99084,"byteLength":50700,"target":34962},{"buffer":9,"byteOffset":149784,"byteLength":33800,"target":34962}],"accessors":[{"bufferView":0,"byteOffset":0,"componentType":5123,"count":8640,"type":"SCALAR","min":[0],"max":[1558]},{"bufferView":1,"byteOffset":0,"componentType":5126,"count":1560,"type":"VEC3","min":[-68.5,-7.5,-74.5],"max":[68.5,7.5,74.5]},{"bufferView":2,"byteOffset":0,"componentType":5126,"count":1560,"type":"VEC3","min":[-1,-1,-1],"max":[1,1,1]},{"bufferView":3,"byteOffset":0,"componentType":5126,"count":1560,"type":"VEC2","min":[0,0],"max":[1,1]},{"bufferView":4,"byteOffset":0,"componentType":5123,"count":8640,"type":"SCALAR","min":[0],"max":[1558]},{"bufferView":5,"byteOffset":0,"componentType":5126,"count":1560,"type":"VEC3","min":[-45.5,-47.5,-51],"max":[45.5,47.5,51]},{"bufferView":6,"byteOffset":0,"componentType":5126,"count":1560,"type":"VEC3","min":[-1,-1,-1],"max":[1,1,1]},{"bufferView":7,"byteOffset":0,"componentType":5126,"count":1560,"type":"VEC2","min":[0,0],"max":[1,1]},{"bufferView":8,"byteOffset":0,"componentType":5123,"count":24192,"type":"SCALAR","min":[0],"max":[4224]},{"bufferView":9,"byteOffset":0,"componentType":5126,"count":4225,"type":"VEC3","min":[-6.063741207122803,-6.063741207122803,-6.063741207122803],"max":[6.063741207122803,6.063741207122803,6.063741207122803]},{"bufferView":10,"byteOffset":0,"componentType":5126,"count":4225,"type":"VEC3","min":[-1,-1,-1],"max":[1,1,1]},{"bufferView":11,"byteOffset":0,"componentType":5126,"count":4225,"type":"VEC2","min":[-0.0078125,0],"max":[1.0078125,1]},{"bufferView":12,"byteOffset":0,"componentType":5123,"count":24192,"type":"SCALAR","min":[0],"max":[4224]},{"bufferView":13,"byteOffset":0,"componentType":5126,"count":4225,"type":"VEC3","min":[-6.063741207122803,-6.063741207122803,-6.063741207122803],"max":[6.063741207122803,6.063741207122803,6.063741207122803]},{"bufferView":14,"byteOffset":0,"componentType":5126,"count":4225,"type":"VEC3","min":[-1,-1,-1],"max":[1,1,1]},{"bufferView":15,"byteOffset":0,"componentType":5126,"count":4225,"type":"VEC2","min":[-0.0078125,0],"max":[1.0078125,1]},{"bufferView":16,"byteOffset":0,"componentType":5123,"count":6240,"type":"SCALAR","min":[0],"max":[1120]},{"bufferView":17,"byteOffset":0,"componentType":5126,"count":1122,"type":"VEC3","min":[-36.5,-45.5,-31.5],"max":[36.5,45.5,31.5]},{"bufferView":18,"byteOffset":0,"componentType":5126,"count":1122,"type":"VEC3","min":[-0.9732064008712769,-1,-0.9798391461372375],"max":[0.9732064008712769,1,0.9798391461372375]},{"bufferView":19,"byteOffset":0,"componentType":5126,"count":1122,"type":"VEC2","min":[0,0],"max":[1,1]},{"bufferView":20,"byteOffset":0,"componentType":5123,"count":6240,"type":"SCALAR","min":[0],"max":[1120]},{"bufferView":21,"byteOffset":0,"componentType":5126,"count":1122,"type":"VEC3","min":[-36.5,-45.5,-27],"max":[36.5,45.5,27]},{"bufferView":22,"byteOffset":0,"componentType":5126,"count":1122,"type":"VEC3","min":[-0.9839562773704529,-1,-0.99112468957901],"max":[0.9839562773704529,1,0.99112468957901]},{"bufferView":23,"byteOffset":0,"componentType":5126,"count":1122,"type":"VEC2","min":[0,0],"max":[1,1]},{"bufferView":24,"byteOffset":0,"componentType":5123,"count":3936,"type":"SCALAR","min":[0],"max":[724]},{"bufferView":25,"byteOffset":0,"componentType":5126,"count":726,"type":"VEC3","min":[-39.5,-61,-29],"max":[39.5,61,29]},{"bufferView":26,"byteOffset":0,"componentType":5126,"count":726,"type":"VEC3","min":[-0.9874658584594727,-1,-0.9931850433349609],"max":[0.9874658584594727,1,0.9931850433349609]},{"bufferView":27,"byteOffset":0,"componentType":5126,"count":726,"type":"VEC2","min":[0,0],"max":[1,1]},{"bufferView":28,"byteOffset":0,"componentType":5123,"count":3936,"type":"SCALAR","min":[0],"max":[724]},{"bufferView":29,"byteOffset":0,"componentType":5126,"count":726,"type":"VEC3","min":[-38,-60,-27.5],"max":[38,60,27.5]},{"bufferView":30,"byteOffset":0,"componentType":5126,"count":726,"type":"VEC3","min":[-0.9889363646507263,-1,-0.9941596984863281],"max":[0.9889363646507263,1,0.9941596984863281]},{"bufferView":31,"byteOffset":0,"componentType":5126,"count":726,"type":"VEC2","min":[0,0],"max":[1,1]},{"bufferView":32,"byteOffset":0,"componentType":5123,"count":2148,"type":"SCALAR","min":[0],"max":[599]},{"bufferView":33,"byteOffset":0,"componentType":5126,"count":600,"type":"VEC3","min":[-71.5,-83.5,-71.5],"max":[71.5,83.5,71.5]},{"bufferView":34,"byteOffset":0,"componentType":5126,"count":600,"type":"VEC3","min":[-1,-1,-1],"max":[1,1,1]},{"bufferView":35,"byteOffset":0,"componentType":5126,"count":600,"type":"VEC2","min":[0,0],"max":[1,1]},{"bufferView":36,"byteOffset":0,"componentType":5123,"count":24192,"type":"SCALAR","min":[0],"max":[4224]},{"bufferView":37,"byteOffset":0,"componentType":5126,"count":4225,"type":"VEC3","min":[-69,-69,-69],"max":[69,69,69]},{"bufferView":38,"byteOffset":0,"componentType":5126,"count":4225,"type":"VEC3","min":[-1,-1,-1],"max":[1,1,1]},{"bufferView":39,"byteOffset":0,"componentType":5126,"count":4225,"type":"VEC2","min":[-0.0078125,0],"max":[1.0078125,1]}],"extensions":{"KHR_lights_punctual":{"lights":[]}},"extensionsUsed":["KHR_lights_punctual"]}